<?xml version="1.0" encoding="UTF-8"?>
<svg id="Calque_1" data-name="Calque 1" xmlns="http://www.w3.org/2000/svg" viewBox="0 0 539.04 834.48">
  <defs>
    <style>
      .cls-1 {
        fill: #e6e6e6;
      }
    </style>
  </defs>
  <path class="cls-1" d="M522.44,638.26c2.88,4.37,2.11,6.46-.12,10.84-6.72,13.17-20.03,26.31-30.55,36.63-13.72,13.47-27.7,24.53-42.44,36.75-5.58,4.63-12.32,9.47-17.57,14.11-.92.81-4.45,4.28-4.96,5.12-.92,1.51-1.14,2.63-1.1,4.41-4.8,1.95-11.16-.15-15.07-3.28-6.65-5.34-8.89-13.48-13.01-20.58-11.98-20.59-25.64-40.53-37.7-61.17-19.64-33.6-39.07-67.41-60.12-100.17-5.94-9.25-12.11-17.83-18.24-26.88-7.53-11.11-12.93-22.79-19.25-34.49-.62-1.15-2.66-6.98-3.82-6.73-.7.44-.67.94-.75,1.66-1.1,9.71-.05,22.09-.44,32.19-.84,21.55-3.04,43.28-3.02,64.77.04,43.19-1.4,86.27.14,129.53.23,6.6-.86,12.45-1.01,18.72-.06,2.87.52,5.44.51,8.66-.01,5.64-.57,5.89,5.53,6.47,12.94,1.21,25.94.58,38.81,2.94,8.2,1.5,24.85,5.8,29.98,12.24,3.05,3.84,4.2,6.23,2.74,11.23-1.86,6.34-4.57,8.41-10.02,11.58-9.24,5.38-19.88,10.46-30.08,13.6-35.43,10.89-72.36,16.1-109.15,19.96-2.01.21-7.55,2.32-8.93,1.65-.9-.8-2.49-4.1-2.33-5.19.38-2.55,4.01-2.26,3.71-4.32-.1-.65-6.19-8.48-7.23-11.05-3.22-7.93-2.14-13.27-2.79-21.2-1.82-21.93-4.32-43.87-6.23-65.76-2.02-23.05-3.57-46.14-5.72-69.14-2.18-23.25-1.87-46.7-4.11-69.9-2.42-25.06-6.15-49.95-7.89-75.02-.38-5.54-1.75-16.08-.98-21.03.26-1.69,1.61-2.55,1.89-4.11l.96.24c1.61.83,3.83,1.2,4.57,3.12.77,6.95,3.16,14.29,3.75,21.19.22,2.58-.38,5.27-.18,7.86,4.47,56.16,13.26,111.87,18.75,167.93,3.62,37.05,8.36,74.24,11.01,111.35.51,7.12,1.14,14.22,1.46,21.34l13.74-3.31c18.35-2.44,36.74-5.11,55.01-8.34,13.39-2.37,25.76-6.22,38.89-9.11,4.75-1.04,11.36-3.66,15.74-5.85,2.04-1.03,16.42-9.64,16.72-10.68.75-2.64-3.68-4.65-5.68-5.68-13.76-7.1-32.16-6.18-47.3-7.42-5.67-.47-11.34-1.57-17.06-1.65-4.66-3.38-6.9-8.6-7.92-14.16-1.4-7.63-1.6-15.58-2.14-23.29-2.22-31.12-1.61-60.98,0-92.14,1.75-33.7,4.06-67.1,5.74-100.79.61-12.25.44-25.4,1.47-37.4.39-4.55,3.35-8.48,3.19-13.07-.06-1.62-1.26-3.56-1.01-5.48.27-1.96,4.69-4.26,6.57-4.15,5.71.36,3.91,5.38,5.54,8.87,2.53,5.44,7.56,13.55,10.75,19,17.26,29.52,37.04,56.83,54.83,85.79,24.42,39.75,49.3,79.28,74.11,118.82,6.24,9.94,11.76,20.32,17.7,30.42l1.16.21c1.34-.35,2.27-3.03,3.31-4.2,6.31-7.09,17.55-13.74,25.19-20.06,12.45-10.3,24.18-21.77,35.52-33.11,9.58-9.58,19.66-19.42,27.82-30.23,3.08-4.08,3.49-5.11-.44-8.63-5.53-4.97-12.86-4.73-19.83-3.01-9.64,2.39-21.29,7.03-31.08,10.19-2.96.96-5.26,3.42-8.51,1.83-2.72-1.34-1.34-4.14-2.95-6.16-1.37-1.72-6.74-4.18-8.88-6-4.29-3.65-4.99-7.87-7.64-12.52-12.89-22.63-30.29-42.71-42.58-65.88-6.96-13.11-11.59-27.08-17.89-40.17-3.31-6.88-6.07-14.5-9.34-20.91-7.87-15.45-15.37-31.11-22.51-47.07-2.25-5.02-3.76-11-6.22-15.86-1.5-2.96-3.82-5.6-5.31-8.6-2.15-4.34-2.9-8.72-4.64-13.17,1.7-5.21,4.18,1.56,5.69,3,3.81,3.62,4.51,5.5,7.07,10.21,14.31,26.24,26.3,54.08,41.51,79.9,2.72,4.61,6.24,9.09,8.8,13.76,8.44,15.37,15.23,31.7,24.14,46.89,5.26,8.98,15.55,20.99,19.37,29.58,2.34,5.27,3.13,7.46,6.06,12.66,5.78,10.25,11.26,20.63,16.15,31.35l1.88.45c13.53-3.1,26.89-10.83,40.86-11.5,10.5-.5,19.4,1.5,25.4,10.6Z"/>
  <path class="cls-1" d="M401.67,230.19c12.15,21.02,19.1,45.51,14.12,69.6-1.12,5.42-.35,5.25-3.39,10.04-1.72,2.69-.96,4.22-1.63,6.53-2.74,9.56-8.23,21.33-13.25,29.94-6.29,10.8-15.82,17.48-23.85,26.54-1.07,1.21-1.5,2.9-2.68,4.05-2.34,2.29-7.57,4.61-10.48,6.79-9.54,7.14-18.59,15.43-29.16,21.23-4.65,2.55-9.96,4.07-14.52,6.6-1.11.62-1.53,2.13-2.74,3.02-2.65,1.96-8.63,3.61-11.82,4.98-1.41.61-2.61,1.93-4.56,2.63-3.46,1.24-6.52.8-9.82,1.71-3.82,1.07-5.33,2.64-10.1,1.68-2.4-.49-4.79-4.81-5.06-6.97-.71-5.44,8.55-11.55,12.67-13.99l.68-1.97c-5.84,1.56-13.99,8.24-19.93,7.92-2.98-.16-4.34-5.76-4.3-8.16.11-5.52,5.82-6.59,9.08-9.39,2.19-1.87,5.08-5.49,7.21-7.66,1.09-1.12,3.25-1.65,3.14-3.56-.39-1.31-6.88-.61-8.42-.72-3.31-.23-7.8-.66-9.7-3.74-.81-1.31-2.14-5.09-2.07-6.59.02-.53,1.49-4.76,1.72-5.04.49-.58,2.1-.83,2.96-1.35,1.5-.92,3.19-2.29,4.62-3.07,5.5-3,12.95-3.31,19.04-5.91,3.84-1.64,7.42-4.49,11.5-5.78.4-.23.82-.57.93-1.02.33-1.29-3.87-6.41-4.75-8.05-5.99-11.11-4.85-25.02-5.75-37.44-.92-12.46-3.36-27.4-.94-39.82.1-.51,1.57-3.15,1.92-3.37.48-.3,1.25-.11,1.75-.4,1.81-1.04,1.92-1.59,4.7-1.79,6.2-.45,10.36,1.5,15.76,3.48,7.14,2.61,27.59,12.44,31.74,18.17.68.95,1.87,3.04,2.08,4.16-.15,8.75,1.86,16.97.48,25.69-2.08,13.05-11.54,28.16-22.78,35.3-3.29,2.09-7.63,3.16-11.21,5.1-7.33,3.97-14.19,8.7-21.81,12.26-6.12,2.86-13.89,4.17-19.6,7.76-.73.46-4.2,2.8-3.21,3.75,1.56-.21,3.02.4,4.54.5,6.05.42,13.7-.12,19.65-1.03,1.77-.27,4.2-1.53,5.76-1.38,3.36.32,5,4.68,2.18,6.92-4.23,3.35-9.06,4.81-13.56,7.08-1.72.86-7.94,5.66-9.68,7.12-1.49,1.24-7.53,6.7-8.41,7.9-.59.82-1.1,1.57-.96,2.64,3.96-2,8.41-2.91,12.47-4.56,6.25-2.55,13.15-7.17,19.32-9.01,3.54-1.06,8.87-3.06,8.03,2.74-.46,3.22-7.99,4.64-10.32,6.97-.97.96-1.45,3.32-2.86,4.82-4.02,4.25-12.45,8.22-15.91,12.17-2.97,3.39,1.66,2.9,4.38,2.7,11.07-.78,18.95-7.07,27.46-12.86,5.7-3.87,12.1-6.65,17.78-10.54,5.35-3.66,10.43-8.23,15.81-12.02,14.79-10.4,29.87-18.24,40.3-33.61,23.23-34.24,27.46-65.11,10.05-103.26-12.79-28.02-27.84-48.67-55.62-63.4-4.51-2.39-13.17-4.79-16.67-7.33-2.98-2.16-5.61-7.85-9.09-10.1.45-.7.92-.66,1.65-.74,9.19-1.06,31.59,9,39.78,14.02,6.03,3.71,12.18,8.7,17.35,13.37,10.69,9.66,20.71,25.15,28,37.75ZM312.32,342.7c19.6-9.69,31.84-27.67,29.39-50.17-.2-1.88-2.94-9.7-3.92-11.2-.2-.29-4.94-3.7-5.66-4.18-6.2-4.18-10.29-6.26-17.25-8.67-2.01-.7-3.76-2.28-6.04-2.59-6.65-.91-8.39-.38-8.24,6.41.44,19.83,4.11,39.48,6.07,59.09.42,4.18.56,8.42.58,12.62,1.73.8,3.52-.54,5.07-1.31Z"/>
  <path class="cls-1" d="M320.2,107.73c.02,1.45-2.22,7.04-3.02,8.55-1.29,2.45-6.08,5.29-8.25,7.57-.9.94-1.33,2.7-2.07,3.34-1.25,1.06-6.19,3.56-7.78,3.59-.71.01-.99-.71-1.97-.56-3.42.51-3.24,5-4.21,7.36-4,9.73-11.13,17.62-16.4,26.31-1.8,2.96-9.9,7.94-13.31,10.21-31.8,21.11-60.35,32.28-97.77,16.35-2.68-1.14-3.83-1.59-6.55-2.58-2.6-.94-4.93-2.54-7.67-3.13l.74-2.86c-9.95-7.65-16.88-18.33-22.36-29.51-1.14-1.03-5.89-.14-7.92-.23-2.47-.12-10.84-1.27-12.17-3.2-.56-.82-.58-2.15-1.26-3.06-2.01-2.69-4.43-2.99-5.38-7.09-1.73-7.57-.84-15.44,3.99-21.66.92-1.19,3.62-3.92,5.16-3.78.42.04,3.32,1.28,3.25,2.05.17,2.65-2.77,4.61-3.77,6.85-.77,1.75-2.1,8.53-2.06,10.41.2,8.65,9.07,11.71,16.28,10.28.35-.55-2.04-10.93-2.28-12.71-1.09-8.07-.97-17.76-.05-25.85.35-3.09,1.43-6.01,1.88-9.08l-1.08-.69c-8.71,3.89-5.66-4.03-4.18-8.96,2.6-8.67,7.17-17.5,11.62-25.34,6.24-11.02,9.82-17.07,20.88-23.75,9.02-5.44,18.69-10.09,27.66-15.54,5.83-3.55,6.99-7.37,15.34-5.08,1.76.49,2.28,2.1,3.24,2.53,1.14.51,2.53.08,3.85.46,1.06.31,2.33,1.91,3.21,2.09.87.18,3.11-.54,4.69-.39,2.4.23,5.52,1.45,8.17,1.36,3.28-.1,7.42-4,10.33-3.07,1.15.36,1.67,1.9,3.09,1.71,1.42-.38-.39-6.17,4.18-7.34,3-.77,3.16.54,5.54.99,9.15,1.75,18.5,3.94,25.81,10.19,13.85,11.84,28.81,28.1,31.87,46.83.49,2.97,1,7.76-3.54,6.94-.99-.18-2-1.84-2.91-3.83-1.17-2.55-2.17-5.65-2.76-6.85-6.64-13.47-16.55-25.64-27.94-34.93-5.77-4.7-12.1-8.44-19.44-10.07-.22,1.01.52,1.09,1.12,1.52,2.16,1.55,4.84,2.89,6.8,4.72,2.13,1.98,3.96,5.2,6.25,7.18,2.15,1.86,5.08,2.94,7.39,4.61,8.82,6.37,21.94,24.7,26.69,34.74.94,1.97,2.12,4.3,2.76,6.35.67,2.13,1.44,9.09,2.48,10.03,3.55-.04,7.82-1.41,11.34-.32,2.18.67,10.23,9.05,11.26,11.29.55,1.19,1.2,3.75,1.23,5.05ZM309.51,106.16c.84-3.38-4.13-7.28-7.19-7.2-1.26.04-2.96.66-4.41.44l-.72.72c-.36,3.29-.29,6.72-.55,10-.19,2.33-2.77,10.21,1.61,7.86.65-.35,5.56-4.49,6.31-5.22.88-.86,4.73-5.69,4.95-6.6ZM283.91,125.24c2.4-6.94,3.09-22.65,2.13-29.95-.53-4.01-8.14-23.04-10.69-26.02-.73-.86-1.91-1.43-2.46-.16-.85,1.95-.76,7.62-1.43,10.08-.37,1.36-3.2,4.94-4.41,5.67-2.96,1.78-8.52.58-10.93-1.89-2.32-2.39-7.03-9.94-8.53-13.06-.65-1.34-2.71-9.33-4.46-8.96-1.33,1.34-.55,3.62-.79,5.45-.46,3.52-1.68,13.05-2.91,15.83-.52,1.19-6.93,6.77-8.09,7.24-2.92,1.19-9.73-2.34-11.7-4.57-5.01-5.65-1.77-18.73-1.7-26.09.02-3.31.1-6.61-.5-9.86-.8.2-1.11,1.03-1.27,1.75-.72,3.22-.12,8.69-.88,12.17-.98,4.5-5.55,15.74-8.87,18.96-4.2,4.08-10.05,4.42-14.43.48-5.78-5.2-4-14.74-3.81-21.59.15-5.16-.41-10.33.96-15.38l-.48-.97c-1.93-.88-1.25.35-1.83,1.55-2.45,4.99-4.86,9.89-7.06,15.03-4.27,9.97-10.81,23.75-13.72,33.8-.67,2.31-.81,5.01-.98,7.41-2.03-.02-3.87,2.35-5.72,1.78-1.63-.5-2.37-2.56-3.59-3.65-.84-.74-3.21-1.71-3.48-2.04-.41-.51-2.17-6.41-3.36-1.44-2.29,9.61-2.23,27.46.12,37.08,2.89,11.86,17.45,33.2,29.18,37.52,34.9,12.85,65.5-3.92,91.37-25.92,1.09-.92,2.82-1.5,3.55-2.23,3.04-3.01,9.34-13.86,10.77-18.02ZM263.99,76.3c1.62-3.51,2.62-7.77,1.82-11.65-.12-.62-2.35-6.06-2.75-6.85-.27-.55-2.93-4.8-3.15-5.01-.6-.56-.85-.58-1.67-.48-.67,3,1.02,5.1,1.68,7.67.9,3.47,1.96,7.41,2.52,10.92.29,1.85-.71,5.3,1.55,5.4ZM231.39,81.71c1.91-2.4,2.93-13.71,2.89-17.18-.04-4.54-1.29-14.45-3.05-18.58-.54-1.28-2.22-2.44-2.29-4.18l-1.44.2c-1.01.72.38,4.95.49,6.26.41,4.57.34,10.28.01,14.87-.32,4.24-2.06,10.54-1.94,14.38.08,2.63,3.11,7.01,5.33,4.23ZM209.3,45.37c.08-3.26.11-6.64-.26-9.86-.44-1.5-6.15.2-6.94.74-.78.52-1.04,1.29-1.26,2.14-1.04,4.1-1.05,14.18-1.17,18.93-.07,2.45.52,4.47.52,6.74,0,1.75-1.19,11.26-.51,11.75.87.18,1.2-.42,1.65-.98,6.41-7.94,7.73-19.58,7.97-29.46ZM158.65,43.68c.6-.66.88-.95.71-1.93-1.14-1.17-9.33,5.37-10.57,6.47-1.44,1.28-3.58,3.35-4.78,4.82-2.42,2.98-11.01,18.28-12.22,21.84-.34,1-.34,1.84-.27,2.86,2.82-1.67,2.82-4.95,3.91-7.37,1.74-3.84,12.13-15.83,15.52-19.51,2.33-2.53,5.56-4.87,7.7-7.18Z"/>
  <path class="cls-1" d="M251.77,94.08c.44,1.16-1.68,4.83-2.67,5.47-1,.64-6.19,2.31-7.31,2.11-1.87-.34-4.62-3.37-4.12-5.35.08-.3,3.54-4.63,3.81-4.86.48-.42,1.61-1,2.23-1.13,3.86-.78,6.58-.05,8.06,3.76Z"/>
  <path class="cls-1" d="M221.74,116.87c.52,9.38,2.06,19.42.99,28.78-.32,2.85-2.55,4.23-5.26,3.32-.36-.12-3.77-2.14-3.91-2.33-.3-.43-1.32-5.39-1.4-6.28-.36-4.12-.41-10.54-.5-14.86-.11-5.44.12-10.89.02-16.33.18-.93,3.39-2.89,4.2-3.05,1.18-.22,4.68.04,5.44,1.1.96,1.34.3,7.48.42,9.65Z"/>
  <path class="cls-1" d="M195.09,96.94c2.53.17,2.97,2.4,2.64,4.52-.36,2.35-2.19,3.68-3.22,5.42-.55.92-.51,2.47-1.21,3.35-1.56,1.93-5.83-.2-7.98-.38-.11-2.86,1.59-5.19,2.72-7.52.44-.92.43-2.42.84-3,.34-.47,5.38-2.44,6.21-2.39Z"/>
  <path class="cls-1" d="M141.12,481.3c-4.98-.14-10.16-.11-15.11-.48-12.29-.94-24.79-2.26-36.24-6.96-28.2-11.59-58.48-28.95-71.14-57.97-9.02-20.67-15.46-45.15-9.85-67.61,7.82-31.34,20.46-54.23,39.97-79.53,9.51-12.33,19.88-23.08,30.22-34.57,8.51-9.47,14.55-16.12,24.96-23.99,1.46-1.1,5.21-4.69,6.7-3.37.26.23,3.92,5.28,4.02,5.61.52,1.87-.77,1.62-1.2,2.23-3.06,4.35-10.31,8.67-14.58,12.55-6.82,6.2-14.19,14.51-20.14,21.61-9.47,11.32-19.61,22.45-28.25,34.62-14.42,20.3-22.68,38.13-27.3,62.92-2.49,13.35-4.95,29.04-1.23,42.22,3.75,13.24,14.41,36.88,25.12,45.43,15.7,12.53,34.37,21.88,52.78,29.77,15.31,6.56,46.26,12.24,62.03,6.36,3.42-1.27,8.1-4.51,11.7-6.05,10-4.3,20.09-5,30.31-8.09,6.89-2.09,13.77-5.53,20.5-7.82,5.09-1.73,17.88-3.85,20.82-7.98,1.67-2.37-1.93-1.13-3.03-1.1-6.58.12-12.35,1.07-18.74,1.41-4.3.22-10.03.9-13.45-1.91-.82-.67-1.21-1.89-1.96-2.36-1.32-.83-4.45-.45-5.25-1.95-1.16-2.21,1.82-1.79,3.01-2.3,6.72-2.9,11.46-5.38,18.74-7.66,2.42-.75,6.28-1.16,8.38-2.18,4.88-2.36-3.4-1.95-5.04-1.68-5.74.98-12.37,3.26-18.09,4.47-2.96.63-10.33,2.51-12.79,2.58-1.31.04-2.72-.76-3.88-1.31-2.98-1.41-9.24-5.54-6.61-9.19,4.66-4.7,11.74-7.87,16.32-12.47.65-.65,4.03-4.41,1.89-4.83-1.38-.27-11.93,6.43-14.16,7.44-3.12,1.41-6.52,2.02-9.71,3.24-8.3,3.18-18.14,8.43-27,8.04-30.8-1.36-59.34-8.5-70.19-40.68-7.89-23.4,1.19-57.49,16.2-76.64,5.36-6.83,19.93-21.02,29-20.9.64.01,5.66.88,6.18,1.07.56.21.94.74,1.06,1.3.05.25-.71,4.45-.85,4.97-.17.67-.94,1.17-1.12,1.78-.74,2.38,3.79,12.75,4.49,16.21,1.22,6.06,1.37,13.24,2.09,19.5,3.03,26.22,3.59,51.85,4.28,78.25.08,2.83-.05,5.59-.46,8.38.47.68,10.48,1.11,11.99.79,2.5-.54,6.93-3.25,9.67-4.24,6.13-2.21,13.33-3.69,19.23-6.22,6.03-2.59,11.46-7.48,18.35-8.04,1.75-.14,4.14.56,5.18.39,1.01-.16,1.75-1.59,2.88-1.3,6.21,3.32,4.28,11.17.12,15.32-1.52,1.52-2.81,2.77-4.32,4.32-.51.52-6.08,5.34-5.54,5.73,1.17.05,2.32.06,3.48-.11,9.75-1.42,24.83-7.44,34.45-4.93,3.13.81,5.68,4.77,5.07,7.95-.66,3.44-2.34,5.53-5.24,7.26-.67.4-7.13,2.83-6.08,3.75,5.94.38,15.47-1.85,19.94,2.86,2.1,2.21,2.35,4.7,1.05,7.33-1.87,3.78-15.85,11.66-20.11,13.01-9.71,3.07-18.83,6.96-28.46,10.41-11.66,4.18-26.92,6.5-39.15,9.33-6.47,1.49-12.69,4.64-19.44,5.52-1.3.17-4.96-.51-5.51.73l-.96-.24ZM136.61,411.24l1.6-.78c-1.69-5.55-3.01-10.89-3.34-16.71-1.15-20.13.45-41.99-2.52-61.8-1.77-11.81-2.46-24.34-5.29-35.97-.32-1.29-.67-3.25-1.6-4.19-2.62-.86-10.3,4.41-12.4,6.22-8.84,7.58-15.39,20.04-18.75,31.17-7.54,24.98-11.53,50.04,10.49,68.94,6.3,5.4,18.66,10.11,26.59,12.05,1.61.4,3.55.14,5.22,1.07Z"/>
</svg>